<svg xmlns="http://www.w3.org/2000/svg" viewBox="0 0 24 24" width="24" height="24" color="currentColor" fill="none" stroke="currentColor" stroke-width="1.5">
    <path d="M15.9922 21H13.9922H9.99219H7.99219" stroke-linecap="round" stroke-linejoin="round"></path>
    <path d="M15.9922 3H7.99219C5.16376 3 3.74955 3 2.87087 3.87868C1.99219 4.75736 1.99219 6.17157 1.99219 9V11C1.99219 13.8284 1.99219 15.2426 2.87087 16.1213C3.74955 17 5.16376 17 7.99219 17H15.9922C18.8206 17 20.2348 17 21.1135 16.1213C21.9922 15.2426 21.9922 13.8284 21.9922 11V9C21.9922 6.17157 21.9922 4.75736 21.1135 3.87868C20.2348 3 18.8206 3 15.9922 3Z" stroke-linecap="round" stroke-linejoin="round"></path>
    <path d="M10.4922 21V17M13.4922 17V21"></path>
</svg>