<svg xmlns="http://www.w3.org/2000/svg" viewBox="0 0 24 24" width="24" height="24" color="currentColor" fill="none" stroke="currentColor" stroke-width="1.5">
    <path d="M2.5 12C2.5 7.52166 2.5 5.28249 3.89124 3.89124C5.28249 2.5 7.52166 2.5 12 2.5C16.4783 2.5 18.7175 2.5 20.1088 3.89124C21.5 5.28249 21.5 7.52166 21.5 12C21.5 16.4783 21.5 18.7175 20.1088 20.1088C18.7175 21.5 16.4783 21.5 12 21.5C7.52166 21.5 5.28249 21.5 3.89124 20.1088C2.5 18.7175 2.5 16.4783 2.5 12Z"></path>
    <path d="M9.82506 11.3518C9.15268 10.5619 7.78642 9.58348 8.02962 9.11899M8.02962 9.11899C7.89414 8.64531 9.21696 7.709 9.82805 6.99475M8.02962 9.11899C10.7849 9.06219 12.4707 9.37797 14.098 10.913C15.7928 12.5119 16.1083 14.2373 15.9711 17.0053" stroke-linecap="round" stroke-linejoin="round"></path>
</svg>