<?xml version="1.0" encoding="UTF-8"?>
<svg id="Layer_1" xmlns="http://www.w3.org/2000/svg" version="1.1" viewBox="0 0 24 24">
  <!-- Generator: Adobe Illustrator 29.7.0, SVG Export Plug-In . SVG Version: 2.1.1 Build 138)  -->
  <defs>
    <style>
      .st0 {
        fill: none;
        stroke: #000;
        stroke-linecap: round;
        stroke-linejoin: round;
        stroke-width: 2px;
      }
    </style>
  </defs>
  <path class="st0" d="M15.5,11c0-1.93-1.57-3.5-3.5-3.5s-3.5,1.57-3.5,3.5,1.57,3.5,3.5,3.5,3.5-1.57,3.5-3.5Z"/>
  <path class="st0" d="M15.48,11.35c.32.1.66.15,1.02.15,1.93,0,3.5-1.57,3.5-3.5s-1.57-3.5-3.5-3.5c-1.81,0-3.31,1.38-3.48,3.15"/>
  <path class="st0" d="M10.98,7.65c-.18-1.77-1.67-3.15-3.48-3.15-1.93,0-3.5,1.57-3.5,3.5s1.57,3.5,3.5,3.5c.35,0,.7-.05,1.02-.15"/>
  <path class="st0" d="M22,16.5c0-2.76-2.46-5-5.5-5"/>
  <path class="st0" d="M17.5,19.5c0-2.76-2.46-5-5.5-5s-5.5,2.24-5.5,5"/>
  <path class="st0" d="M7.5,11.5c-3.04,0-5.5,2.24-5.5,5"/>
</svg>